# xmcd CD database file
#
# Track frame offsets:
#	150
#	17075
#	32650
#	56325
#
# Disc length: 1020 seconds
#
# Revision: 0
# Processed by: cddbd v1.5.1PL2 Copyright (c) Steve Scherf et al.
# Submitted via: CDex 1.51
#
DISCID=2603fa04
DTITLE=JINDOU - なごり雪
DYEAR=2003
DGENRE=J-POP
TTITLE0=なごり雪
TTITLE1=フルテン
TTITLE2=夜空
TTITLE3=東京LOVEモンキー
EXTD=YEAR: 2003
EXTT0=
EXTT1=
EXTT2=
EXTT3=
PLAYORDER=
